<?xml version="1.0" encoding="utf-8"?>
<!-- Generator: Adobe Illustrator 21.0.2, SVG Export Plug-In . SVG Version: 6.00 Build 0)  -->
<svg version="1.1" id="Layer_1" xmlns="http://www.w3.org/2000/svg" xmlns:xlink="http://www.w3.org/1999/xlink" x="0px" y="0px"
	 viewBox="0 0 500 500" style="enable-background:new 0 0 500 500;" xml:space="preserve">
<style type="text/css">
	.st0{fill:#0A9AC6;}
	.st1{fill:#FFA900;}
	.st2{clip-path:url(#SVGID_2_);}
</style>
<g>
	<path class="st0" d="M425.6,242l0.1,0.4c-6.8,0.9-12.3,6.1-13.6,13l-27.2,149.7c-1.4,7.6-8,13.1-15.7,13.1H130.2
		c-7.7,0-14.4-5.5-15.7-13.1L87.2,255.3c-1.3-6.9-6.8-12.1-13.6-13l0.1-0.4c-11.8-1.5-20.8-11.6-20.8-23.8c0-13.3,10.7-24,24-24
		h345.6c13.3,0,24,10.7,24,24C446.4,230.4,437.3,240.4,425.6,242L425.6,242z M345.6,362.2v-64c0-8.8-7.2-16-16-16
		c-8.8,0-16,7.2-16,16v64c0,8.8,7.2,16,16,16C338.4,378.2,345.6,371,345.6,362.2L345.6,362.2z M265.6,362.2v-64c0-8.8-7.2-16-16-16
		c-8.8,0-16,7.2-16,16v64c0,8.8,7.2,16,16,16C258.4,378.2,265.6,371,265.6,362.2L265.6,362.2z M185.6,362.2v-64c0-8.8-7.2-16-16-16
		c-8.8,0-16,7.2-16,16v64c0,8.8,7.2,16,16,16C178.4,378.2,185.6,371,185.6,362.2L185.6,362.2z M185.6,362.2"/>
	<path class="st1" d="M295.6,90.4L371,194.2h-36.6L267.6,106c-4.3-7.7-1.5-17.5,6.2-21.8C281.6,79.9,291.3,82.7,295.6,90.4
		L295.6,90.4z M295.6,90.4"/>
	<path class="st1" d="M225.4,84.2c7.7,4.3,10.5,14,6.2,21.8l-66.8,88.2h-36.6l75.4-103.8C207.9,82.7,217.6,79.9,225.4,84.2
		L225.4,84.2z M225.4,84.2"/>
	<g>
		<defs>
			<rect id="SVGID_1_" x="45" y="73" width="410" height="354"/>
		</defs>
		<clipPath id="SVGID_2_">
			<use xlink:href="#SVGID_1_"  style="overflow:visible;"/>
		</clipPath>
		<path class="st2" d="M249.8,250.2c4.4,0,8-3.6,8-8c0-4.4-3.6-8-8-8c-4.4,0-8,3.6-8,8C241.8,246.6,245.4,250.2,249.8,250.2
			L249.8,250.2z M249.8,250.2"/>
		<path class="st2" d="M422.6,186.2h-47.3L302.5,86.1c-6.5-11.2-20.9-15.2-32.4-8.9c-11.6,6.4-15.8,21-9.3,32.6
			c0.2,0.3,0.4,0.6,0.6,0.9l57.1,75.4H181.1l57.1-75.4c0.2-0.3,0.4-0.6,0.6-0.9c6.4-11.6,2.3-26.2-9.3-32.6
			c-11.4-6.3-25.8-2.3-32.4,8.9l-72.8,100.1H77c-17.6,0-32,14.4-32,32c0,13.9,9,26,21.8,30.3c1.4,1.1,3.1,1.7,4.9,1.7
			c0.4,0,0.7,0,1.1,0.1c3.4,0.5,6.2,3.1,6.8,6.5l27.2,149.7c2.1,11.4,12,19.7,23.6,19.7h238.9c11.6,0,21.5-8.3,23.6-19.7l27.2-149.7
			c0.6-3.4,3.4-6,6.8-6.5c0.4-0.1,0.7-0.1,1.1-0.1c1.9,0,3.6-0.6,4.9-1.7c12.7-4.3,21.7-16.4,21.7-30.3
			C454.6,200.5,440.2,186.2,422.6,186.2L422.6,186.2z M274.6,101.7c-1.8-3.8-0.4-8.4,3.3-10.5c3.9-2.1,8.8-0.8,10.9,3.1
			c0.2,0.3,0.3,0.6,0.5,0.8l66.2,91.1h-16.9L274.6,101.7z M210.3,95.1c0.2-0.3,0.4-0.5,0.5-0.8c2.1-3.8,7-5.2,10.9-3.1
			c3.7,2.1,5.1,6.7,3.3,10.5l-64,84.5h-16.9L210.3,95.1z M422.6,234.2H282c-3.8,0-7.2,2.5-8,6.3c-1.1,5.2,2.8,9.7,7.8,9.7h123.5
			c-0.4,1.2-0.8,2.4-1,3.7l-27.2,149.7c-0.7,3.8-4,6.6-7.9,6.6H130.4c-3.9,0-7.2-2.8-7.9-6.6L95.3,253.9c-0.2-1.3-0.6-2.5-1-3.7
			h123.3c4,0,7.6-2.8,8.2-6.8c0.7-4.9-3.1-9.2-7.9-9.2H77c-9.8,0-17.4-8.7-15.8-18.6c1.2-7.8,8.2-13.4,16.1-13.4h344.9
			c8.4,0,15.6,6.3,16.3,14.7C439.3,226.4,431.8,234.2,422.6,234.2L422.6,234.2z M422.6,234.2"/>
	</g>
	<path d="M225.6,298.7v63c0,12.6,9.6,23.5,22.1,24.4c14.1,1.1,25.9-10.1,25.9-23.9v-64c0-13.8-11.7-24.9-25.8-23.9
		C235.6,275.1,225.6,286.4,225.6,298.7L225.6,298.7z M257.6,362.2c0,4.8-4.3,8.6-9.2,7.9c-4-0.6-6.8-4.2-6.8-8.2v-63.5
		c0-4,2.8-7.6,6.8-8.2c4.9-0.7,9.2,3.1,9.2,7.9V362.2z M257.6,362.2"/>
	<path d="M353.6,361.7v-63c0-12.6-9.6-23.5-22.2-24.4c-14.1-1.1-25.8,10.1-25.8,23.9v64c0,13.8,11.8,25,25.8,23.9
		C344,385.2,353.6,374.3,353.6,361.7L353.6,361.7z M321.6,298.2c0-4.8,4.3-8.6,9.2-7.9c4,0.6,6.8,4.2,6.8,8.2v63.5
		c0,4-2.8,7.6-6.8,8.2c-4.9,0.7-9.2-3.1-9.2-7.9V298.2z M321.6,298.2"/>
	<path d="M145.6,298.7v63c0,12.6,9.6,23.5,22.1,24.4c14.1,1.1,25.9-10.1,25.9-23.9v-64c0-13.8-11.7-24.9-25.8-23.9
		C155.6,275.1,145.6,286.4,145.6,298.7L145.6,298.7z M177.6,362.2c0,4.8-4.3,8.6-9.2,7.9c-4-0.6-6.8-4.2-6.8-8.2v-63.5
		c0-4,2.8-7.6,6.8-8.2c4.9-0.7,9.2,3.1,9.2,7.9V362.2z M177.6,362.2"/>
</g>
</svg>
